<svg xmlns="http://www.w3.org/2000/svg" width="40" height="40" viewBox="0 0 40 40"><defs><style>.a,.d{fill:none;}.a{stroke:#fff;stroke-width:2px;}.b{fill:#fff;}.c{stroke:none;}</style></defs><g transform="translate(-1497 -16)"><g class="a" transform="translate(1497 16)"><circle class="c" cx="20" cy="20" r="20"/><circle class="d" cx="20" cy="20" r="19"/></g><path class="b" d="M67.922,65.207a.048.048,0,0,0-.024-.022A15.492,15.492,0,0,0,64.075,64a.058.058,0,0,0-.061.029,10.778,10.778,0,0,0-.476.977,14.3,14.3,0,0,0-4.293,0,9.886,9.886,0,0,0-.483-.977A.06.06,0,0,0,58.7,64a15.448,15.448,0,0,0-3.823,1.185.055.055,0,0,0-.025.022,15.838,15.838,0,0,0-2.774,10.684.064.064,0,0,0,.024.044A15.575,15.575,0,0,0,56.792,78.3a.061.061,0,0,0,.066-.022,11.121,11.121,0,0,0,.959-1.56.059.059,0,0,0-.033-.083,10.258,10.258,0,0,1-1.465-.7.06.06,0,0,1-.006-.1q.148-.111.291-.228a.058.058,0,0,1,.061-.008,11.109,11.109,0,0,0,9.438,0,.058.058,0,0,1,.061.007q.143.118.292.229a.06.06,0,0,1-.005.1,9.627,9.627,0,0,1-1.466.7.06.06,0,0,0-.032.083,12.489,12.489,0,0,0,.959,1.559.06.06,0,0,0,.066.022,15.523,15.523,0,0,0,4.7-2.369.06.06,0,0,0,.024-.043,15.733,15.733,0,0,0-2.776-10.684Zm-9.646,8.551a1.9,1.9,0,0,1,0-3.784,1.9,1.9,0,0,1,0,3.784Zm6.24,0a1.9,1.9,0,0,1,0-3.784,1.9,1.9,0,0,1,0,3.784Z" transform="translate(1455.251 -34.999)"/></g></svg>