<svg xmlns="http://www.w3.org/2000/svg" width="40" height="40" viewBox="0 0 40 40"><defs><style>.a,.d{fill:none;}.a{stroke:#fff;stroke-width:2px;}.b{fill:#fff;}.c{stroke:none;}</style></defs><g transform="translate(-1369 -16)"><g class="a" transform="translate(1369 16)"><circle class="c" cx="20" cy="20" r="20"/><circle class="d" cx="20" cy="20" r="19"/></g><path class="b" d="M-411.575-187.594l-3.223-3.223a2.878,2.878,0,0,0-2.048-.849,2.878,2.878,0,0,0-2.048.848l-2.33,2.33,1.69,1.69,2.33-2.33a.5.5,0,0,1,.358-.148.5.5,0,0,1,.358.148l3.223,3.223a.507.507,0,0,1,0,.716l-3.224,3.224a.5.5,0,0,1-.358.148.5.5,0,0,1-.358-.148l-3.223-3.223,0,0-5.627-5.625a2.878,2.878,0,0,0-2.048-.849,2.877,2.877,0,0,0-2.048.848l-3.224,3.224a2.878,2.878,0,0,0-.848,2.048,2.878,2.878,0,0,0,.848,2.048l3.223,3.224a2.878,2.878,0,0,0,2.048.848,2.877,2.877,0,0,0,2.048-.848l2.331-2.331-1.69-1.69-2.331,2.331a.5.5,0,0,1-.358.148.5.5,0,0,1-.358-.148l-3.224-3.224a.5.5,0,0,1-.148-.358.5.5,0,0,1,.148-.358l3.224-3.224a.5.5,0,0,1,.358-.148.5.5,0,0,1,.358.148l3.223,3.223,0,0,5.628,5.627a2.878,2.878,0,0,0,2.048.848,2.878,2.878,0,0,0,2.048-.848l3.224-3.224A2.9,2.9,0,0,0-411.575-187.594Z" transform="translate(1811.227 221.666)"/></g></svg>