<svg xmlns="http://www.w3.org/2000/svg" width="40" height="40" viewBox="0 0 40 40"><defs><style>.a{fill:#fff;}.b{fill:#231f52;}</style></defs><g transform="translate(-1561 -82)"><circle class="a" cx="20" cy="20" r="20" transform="translate(1561 82)"/><g transform="translate(1459.63 -19.271)"><path class="b" d="M381.552,378.7a2.852,2.852,0,1,0,2.852,2.852A2.858,2.858,0,0,0,381.552,378.7Z" transform="translate(-260.631 -260.729)"/><path class="b" d="M129.476,120.824c0-1.181.011-2.352-.056-3.531a4.733,4.733,0,0,0-4.966-4.966c-1.181-.066-2.352-.056-3.531-.056s-2.352-.011-3.531.056a4.733,4.733,0,0,0-4.966,4.966c-.066,1.181-.056,2.352-.056,3.531s-.011,2.352.056,3.531a4.733,4.733,0,0,0,4.966,4.966c1.181.066,2.352.056,3.531.056s2.352.011,3.531-.056a4.733,4.733,0,0,0,4.966-4.966C129.489,123.175,129.476,122,129.476,120.824Zm-8.555,4.389a4.389,4.389,0,1,1,4.389-4.389A4.383,4.383,0,0,1,120.922,125.212Zm4.568-7.932a1.025,1.025,0,1,1,1.025-1.025A1.024,1.024,0,0,1,125.49,117.28Z" transform="translate(0)"/></g></g></svg>