<svg xmlns="http://www.w3.org/2000/svg" width="40" height="40" viewBox="0 0 40 40"><defs><style>.a,.d{fill:none;}.a{stroke:#fff;stroke-width:2px;}.b{fill:#fff;}.c{stroke:none;}</style></defs><g transform="translate(-1433 -16)"><g class="a" transform="translate(1433 16)"><circle class="c" cx="20" cy="20" r="20"/><circle class="d" cx="20" cy="20" r="19"/></g><path class="b" d="M16,4.158c0-.16,0-.318-.011-.475a7.324,7.324,0,0,0,1.825-1.876,7.269,7.269,0,0,1-2.1.549A3.614,3.614,0,0,0,17.327.348a7.223,7.223,0,0,1-2.321.856A3.706,3.706,0,0,0,12.338,0,3.665,3.665,0,0,0,9.731,1.065a3.555,3.555,0,0,0-1.049,2.58,3.73,3.73,0,0,0,.1.845A10.421,10.421,0,0,1,1.24.506a3.806,3.806,0,0,0,1.131,5A3.612,3.612,0,0,1,.715,5.016v.048a3.746,3.746,0,0,0,2.933,3.68,3.6,3.6,0,0,1-.963.125A3.479,3.479,0,0,1,2,8.8a3.687,3.687,0,0,0,3.415,2.6A7.277,7.277,0,0,1,0,12.927a10.178,10.178,0,0,0,5.605,1.68,10.355,10.355,0,0,0,10.4-10.451Z" transform="translate(1444 29)"/></g></svg>